<svg width="42" height="40" viewBox="0 0 42 40" fill="none" xmlns="http://www.w3.org/2000/svg">
<ellipse cx="20.6458" cy="20" rx="20.6458" ry="20" transform="matrix(-1 0 0 1 41.4833 0)" fill="#FEFCFB"/>
<path d="M0.691608 20C0.691608 30.7547 9.69611 39.5 20.8374 39.5C31.9788 39.5 40.9833 30.7547 40.9833 20C40.9833 9.24531 31.9788 0.5 20.8374 0.5C9.69611 0.5 0.691608 9.24531 0.691608 20Z" stroke="#999999" stroke-opacity="0.5"/>
<path d="M11.8721 19.2929C11.4815 19.6834 11.4815 20.3166 11.8721 20.7071L18.236 27.0711C18.6265 27.4616 19.2597 27.4616 19.6502 27.0711C20.0407 26.6805 20.0407 26.0474 19.6502 25.6569L13.9934 20L19.6502 14.3431C20.0408 13.9526 20.0408 13.3195 19.6502 12.9289C19.2597 12.5384 18.6265 12.5384 18.236 12.9289L11.8721 19.2929ZM29.0958 19L12.5792 19L12.5792 21L29.0958 21L29.0958 19Z" fill="#999999" fill-opacity="0.5"/>
</svg>
